<svg width="46" height="40" viewBox="0 0 46 40" fill="none" xmlns="http://www.w3.org/2000/svg">
    <path
        d="M41.8031 36.3719C38.9437 35.5344 36.5906 33.6875 34.9156 31.25C34.4531 30.5812 33.6063 28.9375 32.5813 29.4812C31.2781 30.175 31.9938 32.2219 32.425 33.2125C33.1344 34.8469 34.3219 36.4094 35.7844 37.6094C37.4438 38.975 39.4688 39.8781 41.5625 39.9C42.6344 39.9125 43.4469 39.0281 43.4375 37.9844C43.4312 36.9719 42.65 36.6219 41.8031 36.3719ZM29.525 19.8531C29.1844 19.0344 28.95 18 28.3156 17.3469C27.7969 16.8156 25.1156 17.45 24.4281 17.55C21.4406 17.9781 18.4281 19.1844 16.2781 21.3625C14.5125 23.1469 13.4813 26.225 14.6313 28.5937C14.9938 29.3437 15.5688 29.9656 16.2625 30.4219C17.3844 31.1594 18.7281 30.7062 19.8813 31.2188C20.6313 31.55 20.9125 32.4156 21.5781 32.8562C22.5531 33.5062 23.7281 33.8062 24.8969 33.7594C25.0312 33.7562 25.1687 33.7469 25.3 33.7313C27.3219 33.525 29.6219 31.7531 30.4906 29.9781C31.4813 27.95 31.3531 25.5375 30.7938 23.4062C30.4719 22.1812 30.0125 21.0187 29.525 19.8531ZM45.2937 18.3219C43.7531 14.0844 38.5437 13.9094 34.7844 14.5531C33.5719 14.7594 31.9156 15.1094 30.8781 15.7844C30.7437 15.8719 30.5344 16.0125 30.4438 16.1406C30.3375 16.2844 30.3438 16.3812 30.3938 16.4875C31.1656 18.1844 31.8156 19.9375 32.3563 21.7219C32.8656 23.4156 33.1281 25.2594 33.9437 26.8438C35.0656 29.0344 36.6375 29.85 39.0375 30.1156C39.9187 30.2125 40.775 29.8687 41.4562 29.3562C42.4531 28.6125 43.2844 27.7094 43.5906 26.4687C43.725 25.9187 43.7281 25.3969 43.7281 24.8187C43.7281 24.1719 43.3812 23.4656 44.0719 23.05C45.8344 21.9937 45.925 20.0594 45.2937 18.3219ZM25.1719 15.7687C25.8031 15.5906 26.4469 15.4844 27.0844 15.3969C27.8219 15.2937 27.15 13.35 27.0469 13.0062C25.9312 9.26562 24.45 4.53437 20.0719 3.63125C18.2 3.24375 15.3438 4.0875 14.5719 5.98437C14.2875 6.68437 14.3813 7.3875 14.2719 8.1125C11.8 9.05625 9.71875 11.8812 10.525 14.5344C11.1438 16.5656 13.125 17.6125 15.1844 17.6969C18.7438 17.8438 21.8156 16.7125 25.1719 15.7687ZM29.6 14.5156C30.7844 14.4375 31.9594 13.8125 33.0906 13.4906C35.6031 12.7687 38.4062 12.8344 40.6875 11.4219C41.2719 11.0625 41.5969 10.3812 41.8438 9.75937C42.4562 8.23125 42.6 6.2875 41.5969 4.89062C40.4531 3.30312 37.7687 2.84687 35.95 3.28437C35.6031 3.36875 35.35 3.34062 35.2125 2.99062C34.9281 2.29062 34.4969 1.6875 33.9688 1.21875C32.8781 0.256249 31.375 -0.156251 29.875 0.265624C28.6781 0.599999 27.7437 1.48437 27.2219 2.59375C25.6531 5.9375 27.3813 10.7219 28.8969 13.8281C29.0406 14.125 29.2469 14.5406 29.6 14.5156Z"
        fill="#757F3F" />
</svg>