<svg width="36" height="40" viewBox="0 0 36 40" fill="none" xmlns="http://www.w3.org/2000/svg">
    <path
        d="M31.8031 36.3719C28.9437 35.5344 26.5906 33.6875 24.9156 31.25C24.4531 30.5812 23.6063 28.9375 22.5813 29.4812C21.2781 30.175 21.9938 32.2219 22.425 33.2125C23.1344 34.8469 24.3219 36.4094 25.7844 37.6094C27.4438 38.975 29.4688 39.8781 31.5625 39.9C32.6344 39.9125 33.4469 39.0281 33.4375 37.9844C33.4312 36.9719 32.65 36.6219 31.8031 36.3719ZM19.525 19.8531C19.1844 19.0344 18.95 18 18.3156 17.3469C17.7969 16.8156 15.1156 17.45 14.4281 17.55C11.4406 17.9781 8.42813 19.1844 6.27813 21.3625C4.5125 23.1469 3.48125 26.225 4.63125 28.5937C4.99375 29.3437 5.56875 29.9656 6.2625 30.4219C7.38438 31.1594 8.72812 30.7062 9.88125 31.2188C10.6313 31.55 10.9125 32.4156 11.5781 32.8562C12.5531 33.5062 13.7281 33.8062 14.8969 33.7594C15.0312 33.7562 15.1687 33.7469 15.3 33.7313C17.3219 33.525 19.6219 31.7531 20.4906 29.9781C21.4813 27.95 21.3531 25.5375 20.7938 23.4062C20.4719 22.1812 20.0125 21.0187 19.525 19.8531ZM35.2937 18.3219C33.7531 14.0844 28.5437 13.9094 24.7844 14.5531C23.5719 14.7594 21.9156 15.1094 20.8781 15.7844C20.7437 15.8719 20.5344 16.0125 20.4438 16.1406C20.3375 16.2844 20.3438 16.3812 20.3938 16.4875C21.1656 18.1844 21.8156 19.9375 22.3563 21.7219C22.8656 23.4156 23.1281 25.2594 23.9437 26.8438C25.0656 29.0344 26.6375 29.85 29.0375 30.1156C29.9187 30.2125 30.775 29.8687 31.4562 29.3562C32.4531 28.6125 33.2844 27.7094 33.5906 26.4687C33.725 25.9187 33.7281 25.3969 33.7281 24.8187C33.7281 24.1719 33.3812 23.4656 34.0719 23.05C35.8344 21.9937 35.925 20.0594 35.2937 18.3219ZM15.1719 15.7687C15.8031 15.5906 16.4469 15.4844 17.0844 15.3969C17.8219 15.2937 17.15 13.35 17.0469 13.0062C15.9312 9.26562 14.45 4.53437 10.0719 3.63125C8.2 3.24375 5.34375 4.0875 4.57188 5.98437C4.2875 6.68437 4.38125 7.3875 4.27188 8.1125C1.8 9.05625 -0.281249 11.8812 0.525001 14.5344C1.14375 16.5656 3.125 17.6125 5.18438 17.6969C8.74375 17.8438 11.8156 16.7125 15.1719 15.7687ZM19.6 14.5156C20.7844 14.4375 21.9594 13.8125 23.0906 13.4906C25.6031 12.7687 28.4062 12.8344 30.6875 11.4219C31.2719 11.0625 31.5969 10.3812 31.8438 9.75937C32.4562 8.23125 32.6 6.2875 31.5969 4.89062C30.4531 3.30312 27.7687 2.84687 25.95 3.28437C25.6031 3.36875 25.35 3.34062 25.2125 2.99062C24.9281 2.29062 24.4969 1.6875 23.9688 1.21875C22.8781 0.256249 21.375 -0.156251 19.875 0.265624C18.6781 0.599999 17.7437 1.48437 17.2219 2.59375C15.6531 5.9375 17.3813 10.7219 18.8969 13.8281C19.0406 14.125 19.2469 14.5406 19.6 14.5156Z"
        fill="#757F3F" />
</svg>