<svg width="59" height="59" viewBox="0 0 59 59" fill="none" xmlns="http://www.w3.org/2000/svg">
    <path
        d="M29.5 4.91663C26.2717 4.91663 23.075 5.55249 20.0924 6.78792C17.1098 8.02335 14.3997 9.83414 12.117 12.1169C7.50669 16.7272 4.91667 22.9801 4.91667 29.5C4.91667 40.3658 11.9721 49.5845 21.7317 52.8541C22.9608 53.0508 23.3542 52.2887 23.3542 51.625V47.4704C16.5446 48.9454 15.0942 44.1762 15.0942 44.1762C13.9633 41.3245 12.3654 40.5625 12.3654 40.5625C10.1283 39.0383 12.5375 39.0875 12.5375 39.0875C14.9958 39.2595 16.2988 41.6195 16.2988 41.6195C18.4375 45.3562 22.0513 44.25 23.4525 43.66C23.6738 42.062 24.3129 40.9804 25.0013 40.3658C19.5438 39.7512 13.8158 37.637 13.8158 28.2708C13.8158 25.542 14.75 23.3541 16.3479 21.6087C16.1021 20.9941 15.2417 18.4375 16.5938 15.1187C16.5938 15.1187 18.6588 14.455 23.3542 17.6262C25.2963 17.0854 27.4104 16.815 29.5 16.815C31.5896 16.815 33.7038 17.0854 35.6458 17.6262C40.3413 14.455 42.4063 15.1187 42.4063 15.1187C43.7583 18.4375 42.8979 20.9941 42.6521 21.6087C44.25 23.3541 45.1842 25.542 45.1842 28.2708C45.1842 37.6616 39.4317 39.7266 33.9496 40.3412C34.8346 41.1033 35.6458 42.6029 35.6458 44.8891V51.625C35.6458 52.2887 36.0392 53.0754 37.2929 52.8541C47.0525 49.56 54.0833 40.3658 54.0833 29.5C54.0833 26.2716 53.4475 23.0749 52.212 20.0923C50.9766 17.1097 49.1658 14.3997 46.883 12.1169C44.6003 9.83414 41.8902 8.02335 38.9076 6.78792C35.9251 5.55249 32.7283 4.91663 29.5 4.91663Z"
        fill="#4F5D4E" />
</svg>