<svg width="60" height="59" viewBox="0 0 60 59" fill="none" xmlns="http://www.w3.org/2000/svg">
    <path
        d="M46.7917 7.375C48.0957 7.375 49.3462 7.893 50.2683 8.81506C51.1903 9.73711 51.7083 10.9877 51.7083 12.2917V46.7083C51.7083 48.0123 51.1903 49.2629 50.2683 50.1849C49.3462 51.107 48.0957 51.625 46.7917 51.625H12.375C11.071 51.625 9.82046 51.107 8.8984 50.1849C7.97635 49.2629 7.45834 48.0123 7.45834 46.7083V12.2917C7.45834 10.9877 7.97635 9.73711 8.8984 8.81506C9.82046 7.893 11.071 7.375 12.375 7.375H46.7917ZM45.5625 45.4792V32.45C45.5625 30.3245 44.7182 28.2861 43.2152 26.7831C41.7123 25.2802 39.6738 24.4358 37.5483 24.4358C35.4588 24.4358 33.025 25.7142 31.845 27.6317V24.9029H24.9863V45.4792H31.845V33.3596C31.845 31.4667 33.3692 29.9179 35.2621 29.9179C36.1749 29.9179 37.0503 30.2805 37.6957 30.926C38.3412 31.5714 38.7038 32.4468 38.7038 33.3596V45.4792H45.5625ZM16.9967 21.0433C18.092 21.0433 19.1425 20.6082 19.917 19.8337C20.6916 19.0592 21.1267 18.0087 21.1267 16.9133C21.1267 14.6271 19.2829 12.7587 16.9967 12.7587C15.8948 12.7587 14.8381 13.1965 14.0589 13.9756C13.2798 14.7547 12.8421 15.8115 12.8421 16.9133C12.8421 19.1996 14.7104 21.0433 16.9967 21.0433ZM20.4138 45.4792V24.9029H13.6042V45.4792H20.4138Z"
        fill="#4F5D4E" />
</svg>